<?xml version="1.0" encoding="utf-8" ?><svg xmlns="http://www.w3.org/2000/svg" xmlns:xlink="http://www.w3.org/1999/xlink" width="500" height="500" viewBox="0 0 500 500"><path fill="#03955D" d="M347.328 164.844C348.237 164.942 347.928 164.743 348.523 165.212C348.877 167.873 348.877 176.037 348.49 178.674L339.925 178.762C335.709 183.624 330.077 188.759 325.606 193.512C323.993 195.226 321.166 197.569 319.763 199.229C319.574 203.172 320.106 219.632 319.311 221.75C317.648 226.178 302.841 237.777 300.044 242.661C299.419 243.752 299.518 248.907 299.452 250.531C297.718 253.3 292.924 257.22 290.615 259.732C284.64 266.232 278.045 272.464 272.109 278.949C271.35 283.595 272.359 290.028 271.74 295.077C276.923 287.93 287.546 279.219 293.633 272.511C294.261 270.027 294.133 264.627 293.981 262.027L294.186 261.77C296.041 259.473 298.298 257.559 300.231 255.372C308.092 246.476 316.922 238.498 325.035 229.827C326.764 227.979 326.278 224.486 326.298 222.074C326.327 218.626 326.113 215.232 326.416 211.779C328.749 209.17 332.114 206.002 334.301 203.557C335.653 202.045 335.333 195.448 335.473 192.941C339.163 192.953 343.906 192.825 347.506 192.999L348.332 193.11C348.832 194.016 348.617 194.102 348.542 195.348C348.807 196.928 348.762 204.518 348.58 206.272C337.124 205.763 339.686 206.643 331.766 213.948C331.367 219.39 331.906 225.253 331.496 230.921C329.465 234.065 322.494 240.621 319.38 243.732L299.759 263.396C299.572 266.078 299.628 268.59 299.526 271.361C299.35 276.108 294.001 279.786 290.899 282.966C290.243 283.638 289.131 284.032 288.888 284.917C289.602 285.464 301.585 285.104 303.386 285.039C305.248 283.938 312.422 276.386 313.76 274.592C314.004 272.186 314.114 265.741 313.835 263.405C316.81 259.032 323.415 254.179 327.129 249.243C327.739 241.202 328.998 243.241 336.2 243.387C336.261 246.656 336.271 249.442 335.944 252.734C334.27 252.849 333.082 252.887 331.406 252.858L331.144 253.225C328.027 257.519 321.837 262.238 319.134 266.481C318.771 267.05 319.028 272.34 318.792 273.974C320.912 273.796 323.157 273.984 325.059 273.813C325.139 273.752 325.22 273.692 325.3 273.631C331.212 267.823 338.175 260.883 343.628 254.806C344.668 253.647 347.202 245.274 348.116 243.374C354.395 230.309 365.769 227.281 379.304 228.424C380.223 228.502 381.136 228.644 381.874 229.173C382.633 230.677 380.951 236.233 380.385 238.097C377.978 246.031 373.659 250.279 367.006 254.525C362.09 257.663 352.399 255.999 350.224 257.339C344.272 261.007 338.249 269.298 332.308 273.989C341.209 273.439 351.789 274.189 361.296 273.751C361.249 271.724 361.157 269.557 361.247 267.544C377.181 267.193 373.956 265.564 373.995 281.388C371.613 281.442 363.955 281.281 361.703 280.876C360.72 279.737 361.702 279.622 360.756 278.832C354.814 278.573 348.148 278.704 342.155 278.703C333.998 278.655 325.841 278.688 317.685 278.804C314.928 280.578 311.387 285.096 309.024 287.533C308.069 288.518 307.299 289.075 306.378 289.946C301.048 290.492 287.586 289.718 284.072 290.642C280.707 293.865 277.96 296.539 274.64 299.856C277.21 299.187 282.982 297.55 285.322 297.343C293.1 296.658 301.409 297.385 309.228 296.969C310.937 296.878 312.574 295.754 314.217 295.201C317.575 294.071 322.815 294.074 326.341 294.452C326.183 292.578 326.185 291.884 326.329 290.008C330.141 290.093 334.09 290.027 337.914 290.01C338.066 294.218 338.034 298.431 337.818 302.637C335.215 302.651 328.679 303.071 326.41 301.385C326.242 301.26 325.694 300.282 325.551 300.021C322.814 299.953 319.531 299.717 316.87 300.204C314.494 300.638 311.81 301.844 309.403 301.972C298.021 302.58 282.846 299.895 273.623 308.279C267.87 313.508 266.793 320.83 266.451 328.317C266.222 333.343 267.524 339.107 268.033 344.229C284.217 332.161 302.215 324.777 322.778 327.606C329.185 328.487 335.889 330.22 342.382 330.889C345.298 331.189 348.935 330.944 351.941 331.023C354.107 333.242 357.625 338.492 359.564 341.184L370.378 355.887L390.236 382.641C392.535 385.708 401.557 396.894 402.472 399.774C402.976 404.657 400.799 405.042 396.483 405.691C387.844 406.991 379.188 407.7 370.543 408.953C339.523 413.449 308.192 418.04 278.308 427.81C275.351 428.776 272.385 429.604 269.477 430.695C262.366 433.912 262.147 438.013 253.287 438.628C252.432 438.687 251.575 438.728 250.718 438.752C249.852 438.764 248.987 438.749 248.122 438.709C237.34 438.246 238.339 433.622 230.724 430.742C217.906 425.894 203.613 422.334 190.233 419.393C174.046 415.795 157.723 412.839 141.302 410.531C131.42 409.069 121.361 408.035 111.446 406.812C108.086 406.398 104.549 406.125 101.26 405.334C97.9153 404.529 97.1046 403.498 97.307 400.169C97.4827 399.256 97.6967 398.628 98.2451 397.863C103.077 391.129 108.06 384.415 113.034 377.792L132.877 351.005L141.92 338.685C143.422 336.647 146.361 332.498 148.097 330.977C160.578 331.135 169.593 328.676 181.677 327.214C200.335 324.957 218.851 334.386 233.589 345.166C238.493 348.649 243.004 352.589 248.377 356.319C250.968 357.16 251.833 355.621 253.558 353.85C254.191 350.861 254.139 345.591 254.169 342.418L254.254 323.905C254.261 321.222 253.845 309.786 255.782 308.269C255.828 308.601 255.873 308.616 256.016 308.931C256.129 308.892 256.242 308.852 256.355 308.813C259.256 304.017 263.654 296.295 266.874 292.096C267.251 287.502 266.999 280.118 267.087 275.228C267.779 274.195 269.08 272.805 269.944 271.824C270.498 268.059 269.983 260.162 270.239 255.781C273.104 251.77 279.055 247.909 281.275 243.748C281.279 241.476 281.023 230.792 281.581 229.517C283.875 224.271 296.164 214.999 298.866 210.064C299.878 208.215 298.31 192.816 299.669 189.984C299.928 189.442 302.339 186.913 302.864 186.356C305.871 183.198 308.942 180.101 312.076 177.068C313.039 176.12 315.989 173.431 316.649 172.471C318.978 169.085 317.586 167.815 322.211 166.379C322.976 166.661 323.997 166.987 324.666 167.501C326.679 169.046 326.891 171.978 325.139 173.807C324.154 174.837 321.978 175.149 320.867 176.225C316.257 180.686 311.877 185.404 307.323 189.919C306.46 190.772 305.675 191.452 304.853 192.365L304.659 192.584C303.364 198.585 305.232 208.351 303.733 212.971C302.077 218.07 290.631 226.067 287.566 230.695C285.734 233.461 287.89 243.007 286.601 246.285C284.848 250.746 278.168 253.797 276.056 258.222C275.521 259.929 275.74 264.615 275.057 267.849C279.829 261.259 287.055 255.472 292.668 249.529C294.709 247.368 293.991 243.29 294.164 240.292C295.234 238.813 298.431 235.769 299.868 234.281C304.591 229.386 309.741 224.713 314.194 219.564C314.789 213.145 314.087 206.681 314.408 200.249C314.462 199.18 314.484 197.917 314.976 196.949C316.444 194.062 331.446 179.287 334.772 176.285C335.545 173.629 335.295 167.97 335.276 164.988C338.485 164.933 344.413 165.194 347.328 164.844ZM251.744 357.19L251.807 374.842C251.812 377.011 251.935 381.654 251.747 383.686C252.012 393.809 251.624 403.996 251.884 414.126C251.902 414.801 251.614 415.628 251.363 416.25C252.862 416.072 256.033 411.557 257.25 410.209C259.27 407.971 261.331 405.835 263.462 403.714C273.401 393.819 284.192 385.557 297.179 380.026C301.998 377.937 311.101 374.99 316.434 374.443C324.861 374.069 335.718 373.196 344.002 374.367C354.127 375.797 368.75 377.64 378.091 381.238C375.282 378.247 372.771 374.529 370.301 371.195L358.872 355.693L351.221 345.284C349.584 343.063 347.516 340.435 346.189 338.077C337.88 337.863 329.163 335.353 319.758 335.198C301.607 334.898 290.467 339.872 274.714 348.113C270.397 350.371 265.316 353.101 260.753 354.727C257.992 355.96 254.763 356.928 251.744 357.19ZM248.866 417.359C247.883 413.592 248.243 407.336 248.231 403.211C248.221 396.655 248.178 390.1 248.101 383.544C248.039 378.117 248.009 372.689 248.009 367.261C248.007 365.989 247.916 361.427 248.093 360.342C247.943 359.443 247.839 358.472 247.723 357.562C246.171 357.169 244.703 356.674 243.182 356.18C237.937 355.142 230.262 350.976 225.664 348.311C207.767 337.874 188.863 332.318 168.123 336.475C165.631 336.975 155.031 337.768 154.259 338.651C149.439 344.158 139.108 358.797 135.006 364.281L126.589 375.46C125.237 377.255 123.508 379.293 122.302 381.136C139.937 375.027 166.097 372.075 184.68 374.578C210.024 377.991 232.876 398.588 248.866 417.359Z"/><path fill="#0286A7" d="M268.033 344.229C284.217 332.161 302.215 324.777 322.778 327.606C329.185 328.487 335.889 330.22 342.382 330.889C345.298 331.189 348.935 330.944 351.941 331.023C354.107 333.242 357.625 338.492 359.564 341.184L370.378 355.887L390.236 382.641C392.535 385.708 401.557 396.894 402.472 399.774C402.976 404.657 400.799 405.042 396.483 405.691C387.844 406.991 379.188 407.7 370.543 408.953C339.523 413.449 308.192 418.04 278.308 427.81C275.351 428.776 272.385 429.604 269.477 430.695C262.366 433.912 262.147 438.013 253.287 438.628C252.432 438.687 251.575 438.728 250.718 438.752C249.758 437.663 250.08 430.331 249.702 427.941L249.911 427.708C250.714 423.766 248.814 420.465 251.363 416.25C252.862 416.072 256.033 411.557 257.25 410.209C259.27 407.971 261.331 405.835 263.462 403.714C273.401 393.819 284.192 385.557 297.179 380.026C301.998 377.937 311.101 374.99 316.434 374.443C324.861 374.069 335.718 373.196 344.002 374.367C354.127 375.797 368.75 377.64 378.091 381.238C375.282 378.247 372.771 374.529 370.301 371.195L358.872 355.693L351.221 345.284C349.584 343.063 347.516 340.435 346.189 338.077C337.88 337.863 329.163 335.353 319.758 335.198C301.607 334.898 290.467 339.872 274.714 348.113C270.397 350.371 265.316 353.101 260.753 354.727C258.205 354.823 255.502 356.465 252.417 356.648L252.214 356.306C252.298 356.066 252.382 355.827 252.466 355.587C256.543 352.964 260.597 350.067 264.547 347.283C266.326 346.029 266.718 345.423 268.033 344.229Z"/><path fill="#016378" d="M249.911 427.708C252.218 427.349 259.955 422.951 262.792 421.585C267.484 419.293 272.27 417.2 277.138 415.31C305.713 404.373 343.026 397.124 373.75 398.153C378.563 398.298 383.371 398.575 388.169 398.981C390.368 399.184 401.163 400.511 402.472 399.774C402.976 404.657 400.799 405.042 396.483 405.691C387.844 406.991 379.188 407.7 370.543 408.953C339.523 413.449 308.192 418.04 278.308 427.81C275.351 428.776 272.385 429.604 269.477 430.695C262.366 433.912 262.147 438.013 253.287 438.628C252.432 438.687 251.575 438.728 250.718 438.752C249.758 437.663 250.08 430.331 249.702 427.941L249.911 427.708Z"/><defs><linearGradient id="gradient_0" gradientUnits="userSpaceOnUse" x1="223.42857" y1="307.91339" x2="374.15533" y2="205.44398"><stop offset="0" stop-color="#067380"/><stop offset="1" stop-color="#059BC4"/></linearGradient></defs><path fill="url(#gradient_0)" d="M347.328 164.844C348.237 164.942 347.928 164.743 348.523 165.212C348.877 167.873 348.877 176.037 348.49 178.674L339.925 178.762C335.709 183.624 330.077 188.759 325.606 193.512C323.993 195.226 321.166 197.569 319.763 199.229C319.574 203.172 320.106 219.632 319.311 221.75C317.648 226.178 302.841 237.777 300.044 242.661C299.419 243.752 299.518 248.907 299.452 250.531C297.718 253.3 292.924 257.22 290.615 259.732C284.64 266.232 278.045 272.464 272.109 278.949C271.35 283.595 272.359 290.028 271.74 295.077C276.923 287.93 287.546 279.219 293.633 272.511C294.261 270.027 294.133 264.627 293.981 262.027L294.186 261.77C296.041 259.473 298.298 257.559 300.231 255.372C308.092 246.476 316.922 238.498 325.035 229.827C326.764 227.979 326.278 224.486 326.298 222.074C326.327 218.626 326.113 215.232 326.416 211.779C328.749 209.17 332.114 206.002 334.301 203.557C335.653 202.045 335.333 195.448 335.473 192.941C339.163 192.953 343.906 192.825 347.506 192.999L348.332 193.11C348.832 194.016 348.617 194.102 348.542 195.348C348.807 196.928 348.762 204.518 348.58 206.272C337.124 205.763 339.686 206.643 331.766 213.948C331.367 219.39 331.906 225.253 331.496 230.921C329.465 234.065 322.494 240.621 319.38 243.732L299.759 263.396C299.572 266.078 299.628 268.59 299.526 271.361C299.35 276.108 294.001 279.786 290.899 282.966C290.243 283.638 289.131 284.032 288.888 284.917C289.602 285.464 301.585 285.104 303.386 285.039C305.248 283.938 312.422 276.386 313.76 274.592C314.004 272.186 314.114 265.741 313.835 263.405C316.81 259.032 323.415 254.179 327.129 249.243C327.739 241.202 328.998 243.241 336.2 243.387C336.261 246.656 336.271 249.442 335.944 252.734C334.27 252.849 333.082 252.887 331.406 252.858L331.144 253.225C328.027 257.519 321.837 262.238 319.134 266.481C318.771 267.05 319.028 272.34 318.792 273.974C320.912 273.796 323.157 273.984 325.059 273.813C325.139 273.752 325.22 273.692 325.3 273.631C331.212 267.823 338.175 260.883 343.628 254.806C344.668 253.647 347.202 245.274 348.116 243.374C354.395 230.309 365.769 227.281 379.304 228.424C380.223 228.502 381.136 228.644 381.874 229.173C382.633 230.677 380.951 236.233 380.385 238.097C377.978 246.031 373.659 250.279 367.006 254.525C362.09 257.663 352.399 255.999 350.224 257.339C344.272 261.007 338.249 269.298 332.308 273.989C341.209 273.439 351.789 274.189 361.296 273.751C361.249 271.724 361.157 269.557 361.247 267.544C377.181 267.193 373.956 265.564 373.995 281.388C371.613 281.442 363.955 281.281 361.703 280.876C360.72 279.737 361.702 279.622 360.756 278.832C354.814 278.573 348.148 278.704 342.155 278.703C333.998 278.655 325.841 278.688 317.685 278.804C314.928 280.578 311.387 285.096 309.024 287.533C308.069 288.518 307.299 289.075 306.378 289.946C301.048 290.492 287.586 289.718 284.072 290.642C280.707 293.865 277.96 296.539 274.64 299.856C277.21 299.187 282.982 297.55 285.322 297.343C293.1 296.658 301.409 297.385 309.228 296.969C310.937 296.878 312.574 295.754 314.217 295.201C317.575 294.071 322.815 294.074 326.341 294.452C326.183 292.578 326.185 291.884 326.329 290.008C330.141 290.093 334.09 290.027 337.914 290.01C338.066 294.218 338.034 298.431 337.818 302.637C335.215 302.651 328.679 303.071 326.41 301.385C326.242 301.26 325.694 300.282 325.551 300.021C322.814 299.953 319.531 299.717 316.87 300.204C314.494 300.638 311.81 301.844 309.403 301.972C298.021 302.58 282.846 299.895 273.623 308.279C267.87 313.508 266.793 320.83 266.451 328.317C266.222 333.343 267.524 339.107 268.033 344.229C266.718 345.423 266.326 346.029 264.547 347.283C260.597 350.067 256.543 352.964 252.466 355.587C252.382 355.827 252.298 356.066 252.214 356.306L252.417 356.648C255.502 356.465 258.205 354.823 260.753 354.727C257.992 355.96 254.763 356.928 251.744 357.19L251.807 374.842C251.812 377.011 251.935 381.654 251.747 383.686C250.751 382.215 251.955 361.21 251.068 357.516C250.259 357.031 249.483 356.862 248.605 357.251C248.097 357.905 248.27 359.187 248.128 360.121L248.093 360.342C247.943 359.443 247.839 358.472 247.723 357.562C246.171 357.169 244.703 356.674 243.182 356.18C245.1 356.415 246.596 356.87 248.377 356.319C250.968 357.16 251.833 355.621 253.558 353.85C254.191 350.861 254.139 345.591 254.169 342.418L254.254 323.905C254.261 321.222 253.845 309.786 255.782 308.269C255.828 308.601 255.873 308.616 256.016 308.931C256.129 308.892 256.242 308.852 256.355 308.813C259.256 304.017 263.654 296.295 266.874 292.096C267.251 287.502 266.999 280.118 267.087 275.228C267.779 274.195 269.08 272.805 269.944 271.824C270.498 268.059 269.983 260.162 270.239 255.781C273.104 251.77 279.055 247.909 281.275 243.748C281.279 241.476 281.023 230.792 281.581 229.517C283.875 224.271 296.164 214.999 298.866 210.064C299.878 208.215 298.31 192.816 299.669 189.984C299.928 189.442 302.339 186.913 302.864 186.356C305.871 183.198 308.942 180.101 312.076 177.068C313.039 176.12 315.989 173.431 316.649 172.471C318.978 169.085 317.586 167.815 322.211 166.379C322.976 166.661 323.997 166.987 324.666 167.501C326.679 169.046 326.891 171.978 325.139 173.807C324.154 174.837 321.978 175.149 320.867 176.225C316.257 180.686 311.877 185.404 307.323 189.919C306.46 190.772 305.675 191.452 304.853 192.365L304.659 192.584C303.364 198.585 305.232 208.351 303.733 212.971C302.077 218.07 290.631 226.067 287.566 230.695C285.734 233.461 287.89 243.007 286.601 246.285C284.848 250.746 278.168 253.797 276.056 258.222C275.521 259.929 275.74 264.615 275.057 267.849C279.829 261.259 287.055 255.472 292.668 249.529C294.709 247.368 293.991 243.29 294.164 240.292C295.234 238.813 298.431 235.769 299.868 234.281C304.591 229.386 309.741 224.713 314.194 219.564C314.789 213.145 314.087 206.681 314.408 200.249C314.462 199.18 314.484 197.917 314.976 196.949C316.444 194.062 331.446 179.287 334.772 176.285C335.545 173.629 335.295 167.97 335.276 164.988C338.485 164.933 344.413 165.194 347.328 164.844Z"/><path fill="#0286A7" d="M347.506 192.999L348.332 193.11C348.832 194.016 348.617 194.102 348.542 195.348C347.188 194.796 347.565 194.347 346.996 193.365L347.506 192.999Z"/><path fill="#0286A7" d="M347.328 164.844C348.237 164.942 347.928 164.743 348.523 165.212C348.499 165.913 348.589 166.505 348.159 167.006L347.679 167.023C347.023 166.172 346.988 165.858 347.328 164.844Z"/><path fill="#0286A7" d="M366.791 236.023C367.452 235.909 367.436 235.94 368.105 236.069L368.29 236.437C368.29 236.435 353.278 249.05 351.625 250.402L351.397 250.266C351.302 249.985 351.157 249.144 351.104 248.822L351.059 248.534L350.468 249.32L350.196 249.304L350.229 248.766C355.012 242.326 358.561 238.378 366.791 236.023Z"/><path fill="#016240" d="M97.307 400.169C101.31 399.767 105.351 399.742 109.327 399.355C155.82 394.831 204.765 404.437 246.063 426.292C247.16 426.873 248.54 427.5 249.702 427.941C250.08 430.331 249.758 437.663 250.718 438.752C249.852 438.764 248.987 438.749 248.122 438.709C237.34 438.246 238.339 433.622 230.724 430.742C217.906 425.894 203.613 422.334 190.233 419.393C174.046 415.795 157.723 412.839 141.302 410.531C131.42 409.069 121.361 408.035 111.446 406.812C108.086 406.398 104.549 406.125 101.26 405.334C97.9153 404.529 97.1046 403.498 97.307 400.169Z"/><path fill="#016240" d="M157.531 384.391C180.114 382.64 202.731 389.751 221.164 402.657C226.35 406.288 230.511 410.482 235.438 414.155C231.296 412.597 228.313 410.05 224.641 408.227C219.566 405.708 213.808 403.155 208.585 401.004C180.853 389.82 155.147 387.853 125.679 390.992C124.777 391.088 122.594 391.346 121.768 391.14C123.644 390.212 129.266 389.142 131.483 388.655C140.349 386.705 148.436 384.735 157.531 384.391Z"/><path fill="#016240" d="M229.38 170.168C226.69 152.276 220.981 154.385 211.826 141.151C201.515 126.246 202.45 103.785 213.418 89.3346C219.518 81.1283 230.657 73.7046 241.043 72.3657C254.332 70.8245 265.002 72.1018 276.13 79.9025C296.008 93.8366 301.2 123.599 286.656 142.935C279.426 152.548 270.901 155.96 270.594 170.314C270.981 173.061 269.604 175.356 268.886 177.854C268.24 180.104 268.467 181.99 266.914 183.985C263.362 188.547 257.683 192.189 255.292 197.562C254.967 198.291 254.794 199.987 254.787 200.83C254.69 213.162 254.756 225.581 254.772 237.91L254.769 250.256C254.766 251.862 254.599 255.365 254.936 256.814L254.609 257.01C254.258 259.127 254.074 265.187 254.411 267.354C254.485 266.419 254.787 260.41 254.713 259.767C256.001 258.675 257.44 258.038 258.912 259.58C259.549 261.894 256.815 263.731 257.369 266.026C256.926 269.031 256.217 271.87 255.999 275.009C255.664 279.815 256.573 305.86 255.782 308.269C253.845 309.786 254.261 321.222 254.254 323.905L254.169 342.418C254.139 345.591 254.191 350.861 253.558 353.85C251.833 355.621 250.968 357.16 248.377 356.319C243.004 352.589 238.493 348.649 233.589 345.166C233.784 342.967 234.392 340.736 234.784 338.531C237.192 324.968 234.955 308.104 224.755 298.064C218.196 291.607 207.073 287.742 198.062 286.858C193.362 286.398 187.763 286.532 182.957 286.615C181.055 290.095 175.424 295.857 172.112 298.093C163.74 303.745 152.752 304.294 143.093 302.343C140.573 301.834 134.723 300.631 133.242 298.437C133.031 297.109 134.5 294.619 135.195 293.419C140.155 284.852 145.988 276.639 155.879 273.67C164.584 271.057 174.321 272.86 182.101 277.236C186.358 279.106 199.553 277.677 204.88 278.342C208.494 278.794 208.933 278.869 212.568 279.958C203.708 273.703 194.71 266.382 183.91 264.305C179.02 263.365 173.396 262.825 168.39 262.342C165.737 262.087 159.996 260.508 158.179 260.552C157.92 260.844 157.642 261.12 157.347 261.377C141.965 274.65 118.517 271.944 105.736 256.562C118.878 243.092 133.29 235.674 150.919 247.128C153.294 248.67 155.438 250.494 157.772 252.032C158.216 252.521 159.21 253.4 159.727 253.888C166.22 255.169 171.685 256.245 178.35 256.023C179.436 255.987 180.451 256.326 181.403 256.017L181.371 255.676C178.607 252.392 165.587 234.57 163.578 233.555C147.35 237.49 131.77 234.423 124.144 218.49C122.568 215.196 121 211.373 120.981 207.837C120.979 207.355 122.659 206.747 122.993 206.671C142.762 202.189 160.714 207.85 166.141 228.942C166.731 230.194 173.324 236.458 174.866 237.917C180.527 243.268 184.908 249.683 190.927 254.681C197.499 260.139 205.727 263.236 212.874 267.465L213.025 267.14C212.366 265.677 212.258 263.415 212.068 261.806C210.512 248.63 204.775 237.13 198.38 225.732C197.84 224.77 196.347 221.818 195.594 221.137C193.107 221.122 190.62 221.059 188.136 220.95C167.824 219.91 159.921 199.879 160.963 181.987C183.537 182.33 197.146 193.642 199.876 216.254C200.379 220.175 203.88 223.885 206.007 227.227C208.522 231.178 210.903 235.139 212.913 239.383C214.839 243.414 216.524 247.658 217.922 251.884C219.978 258.1 220.16 264.93 223.868 270.429C226.269 273.989 230.411 277.314 233.503 280.361C237.024 283.866 240.248 287.657 243.142 291.694L243.077 291.314C242.34 286.836 242.725 280.707 242.34 276.001C241.338 263.781 236.202 253.088 230.815 242.274C230.212 241.063 228.797 237.103 227.528 236.945C225.613 236.522 223.54 235.511 221.857 234.57C217.371 232.061 213.254 228.106 211.946 222.998C210.7 218.131 210.558 213.291 211.871 208.433C212.261 206.991 212.154 206.346 212.939 204.953C215.623 203.354 222.807 210.077 224.854 211.88C231.358 217.605 230.989 223.713 231.097 231.798C232.083 235.7 242.526 249.651 245.34 254.579C243.893 238.992 247.934 227.214 237.25 213.9C231.156 206.307 224.619 199.348 218.473 191.826C218.205 191.765 217.937 191.704 217.669 191.643C198.197 192.694 186.312 179.341 186.982 160.263C187.039 158.617 186.746 157.03 187.353 155.425C187.586 155.253 187.806 155.118 188.109 155.108C194.59 154.911 205.263 158.796 210.002 162.982C218.26 170.277 219.622 175.602 220.485 185.675C220.52 186.549 220.786 187.481 221.406 188.144C228.909 196.156 238.361 203.66 245.461 211.935C245.004 209.372 244.951 205.665 245.13 203.308C245.869 193.552 236.82 189.571 232.414 182.555C231.295 180.774 229.362 172.633 229.38 170.168ZM242.312 140.192C243.097 145.914 244.435 164.626 242.721 170.223C243.992 170.226 245.262 170.22 246.533 170.204C245.215 162.511 246.367 148.709 245.716 140.007C248.144 140.049 252.2 139.921 254.41 140.079C253.9 145.921 253.908 150.815 254.036 156.713C254.115 160.357 254.454 166.69 253.757 170.195C254.991 170.242 255.924 170.22 257.148 170.173C255.866 163.557 256.904 147.479 257.532 140.138C261.878 138.835 266.936 137.054 269.204 132.777C270.956 129.475 269.676 126.671 267.22 124.254C258.164 122.912 256.829 127.757 255.417 134.652C254.558 138.85 246.208 137.671 245.595 136.509C242.654 130.926 244.092 122.322 232.944 124.177C226.087 130.198 232.043 137.333 238.962 138.982C239.91 139.208 241.431 139.764 242.312 140.192Z"/><path fill="#FED556" d="M235.951 126.766C239.921 127.112 243.356 134.233 241.021 136.435C240.194 136.644 239.721 136.382 238.902 136.109C236.617 134.963 232.569 132.776 232.197 129.841C231.915 127.611 234.312 127.183 235.951 126.766Z"/><path fill="#FED556" d="M263.446 127.015C267.891 126.764 267.822 129.519 266.246 132.755C264.577 133.835 263.41 134.52 261.652 135.446C260.445 136.074 259.088 136.833 258.17 135.493C257.971 133.403 259.628 130.362 260.525 128.337C261.743 127.584 262.077 127.471 263.446 127.015Z"/><path fill="#FED556" d="M245.716 140.007C248.144 140.049 252.2 139.921 254.41 140.079C253.9 145.921 253.908 150.815 254.036 156.713C254.115 160.357 254.454 166.69 253.757 170.195C251.319 170.313 248.968 170.248 246.533 170.204C245.215 162.511 246.367 148.709 245.716 140.007Z"/><path fill="#FED556" d="M229.38 170.168C226.69 152.276 220.981 154.385 211.826 141.151C201.515 126.246 202.45 103.785 213.418 89.3346C219.518 81.1283 230.657 73.7046 241.043 72.3657C254.332 70.8245 265.002 72.1018 276.13 79.9025C296.008 93.8366 301.2 123.599 286.656 142.935C279.426 152.548 270.901 155.96 270.594 170.314C268.556 170.409 266.438 170.332 264.393 170.292C261.977 170.278 259.562 170.239 257.148 170.173C255.866 163.557 256.904 147.479 257.532 140.138C261.878 138.835 266.936 137.054 269.204 132.777C270.956 129.475 269.676 126.671 267.22 124.254C258.164 122.912 256.829 127.757 255.417 134.652C254.558 138.85 246.208 137.671 245.595 136.509C242.654 130.926 244.092 122.322 232.944 124.177C226.087 130.198 232.043 137.333 238.962 138.982C239.91 139.208 241.431 139.764 242.312 140.192C243.097 145.914 244.435 164.626 242.721 170.223C240.644 170.344 237.579 170.27 235.431 170.281C233.322 170.294 231.484 170.274 229.38 170.168Z"/><path fill="#FCB61B" d="M229.38 170.168C226.69 152.276 220.981 154.385 211.826 141.151C201.515 126.246 202.45 103.785 213.418 89.3346C219.518 81.1283 230.657 73.7046 241.043 72.3657C254.332 70.8245 265.002 72.1018 276.13 79.9025C296.008 93.8366 301.2 123.599 286.656 142.935C279.426 152.548 270.901 155.96 270.594 170.314C268.556 170.409 266.438 170.332 264.393 170.292C264.238 169.22 264.533 166.281 264.745 165.144C266.266 156.961 271.249 149.852 277.234 144.344C284.771 137.408 288.725 127.415 288.915 117.373C289.202 106.833 285.202 96.6269 277.828 89.0897C270.639 81.8005 260.847 77.668 250.61 77.6024C238.679 77.5594 230.417 80.7266 221.697 89.1443C216.206 94.4437 213.888 100.045 211.956 107.319C210.427 112.932 210.241 118.827 211.414 124.525C212.974 132.03 216.685 138.801 222.2 144.061C230.276 151.761 235.345 158.582 235.431 170.281C233.322 170.294 231.484 170.274 229.38 170.168Z"/><path fill="#03955D" d="M182.957 286.615C181.055 290.095 175.424 295.857 172.112 298.093C163.74 303.745 152.752 304.294 143.093 302.343C140.573 301.834 134.723 300.631 133.242 298.437C133.031 297.109 134.5 294.619 135.195 293.419C140.155 284.852 145.988 276.639 155.879 273.67C164.584 271.057 174.321 272.86 182.101 277.236C181.429 278.95 180.352 278.627 178.659 278.791C168.41 279.78 156.823 284.567 149.445 291.581C157.849 287.538 165.054 284.48 174.67 285.198C176.986 285.37 180.949 285.505 182.957 286.615Z"/><path fill="#03955D" d="M160.963 181.987C183.537 182.33 197.146 193.642 199.876 216.254C199.351 217.052 199.533 217.078 198.822 217.283C198.269 216.899 195.432 213.31 194.774 212.464C190.941 207.531 184.02 201.341 178.307 198.752L178.202 198.883C179.724 200.412 182.246 202.478 183.766 203.885C186.47 206.387 195.026 218.054 195.594 221.137C193.107 221.122 190.62 221.059 188.136 220.95C167.824 219.91 159.921 199.879 160.963 181.987Z"/><path fill="#03955D" d="M105.736 256.562C118.878 243.092 133.29 235.674 150.919 247.128C153.294 248.67 155.438 250.494 157.772 252.032L157.541 253.129C156.507 253.697 149.297 252.661 147.38 252.53C138.743 251.941 134.504 252.855 126.49 255.252C136.202 255.371 144.133 254.822 153.4 258.661C154.858 259.265 157.085 259.377 158.179 260.552C157.92 260.844 157.642 261.12 157.347 261.377C141.965 274.65 118.517 271.944 105.736 256.562Z"/><path fill="#03955D" d="M163.578 233.555C147.35 237.49 131.77 234.423 124.144 218.49C122.568 215.196 121 211.373 120.981 207.837C120.979 207.355 122.659 206.747 122.993 206.671C142.762 202.189 160.714 207.85 166.141 228.942C164.641 228.72 162.116 226.946 160.803 226.107C156.034 223.063 151.511 220.27 145.798 219.434C144.94 219.308 143.165 218.711 142.409 218.955C142.916 219.422 147.032 220.798 148.183 221.172C152.714 222.647 161.235 229.747 163.578 233.555Z"/><path fill="#03955D" d="M217.669 191.643C198.197 192.694 186.312 179.341 186.982 160.263C187.039 158.617 186.746 157.03 187.353 155.425C187.586 155.253 187.806 155.118 188.109 155.108C194.59 154.911 205.263 158.796 210.002 162.982C218.26 170.277 219.622 175.602 220.485 185.675L220.007 186.149C218.801 186.061 213.474 181.583 212.13 180.441C208.53 177.385 205.111 175.293 200.998 172.97C202.909 174.928 205.644 176.674 207.494 178.433C209.817 180.643 217.571 188.607 217.669 191.643Z"/><path fill="#03955D" d="M227.528 236.945C225.613 236.522 223.54 235.511 221.857 234.57C217.371 232.061 213.254 228.106 211.946 222.998C210.7 218.131 210.558 213.291 211.871 208.433C212.261 206.991 212.154 206.346 212.939 204.953C215.623 203.354 222.807 210.077 224.854 211.88C231.358 217.605 230.989 223.713 231.097 231.798C227.948 230.186 222.027 219.209 219.196 216.069C221.002 220.756 227.671 232.226 227.898 236.592L227.528 236.945Z"/><path fill="#0286A7" d="M295.416 160.975C295.407 152.281 298.115 154.862 305.703 155.016C305.732 158.282 305.795 161.439 305.599 164.702L299.663 164.797C297.645 166.274 295.053 169.825 293.119 171.92C291.005 174.21 287.591 177.239 285.793 179.459C285.654 183.994 285.757 188.512 285.726 193.043C285.709 195.557 285.855 198.762 285.407 201.206C281.456 206.238 274.686 211.279 271.708 215.238L271.728 235.921C271.727 239.04 271.837 245.304 271.443 248.189C264.864 253.755 260.292 257.783 257.369 266.026C256.815 263.731 259.549 261.894 258.912 259.58C257.44 258.038 256.001 258.675 254.713 259.767C254.787 260.41 254.485 266.419 254.411 267.354C254.074 265.187 254.258 259.127 254.609 257.01L254.936 256.814C256.201 255.441 256.924 253.664 258.673 252.046C261.191 249.716 263.918 247.145 266.133 244.573C266.681 243.937 266.489 239.245 266.524 238.296C266.767 233.73 265.858 214.932 267.013 211.918C268.35 209.407 277.016 201.646 279.656 199.331C279.677 199.235 279.699 199.139 279.718 199.042C280.39 195.606 280.033 191.548 280.012 188.043C279.997 185.47 279.451 179.225 280.239 177.204C280.508 176.515 293.879 162.492 295.416 160.975Z"/><path fill="#016378" d="M254.936 256.814C256.201 255.441 256.924 253.664 258.673 252.046C261.191 249.716 263.918 247.145 266.133 244.573C266.681 243.937 266.489 239.245 266.524 238.296C266.767 233.73 265.858 214.932 267.013 211.918C266.992 214.259 266.761 217.128 266.984 219.39C267.369 223.285 267.648 226.214 267.45 230.126C267.298 229.318 267.241 228.329 267.17 227.492C266.987 230.748 266.503 237.604 266.91 240.74C267.961 248.817 255.119 252.273 254.732 259.251C254.723 259.423 254.717 259.595 254.713 259.767C254.787 260.41 254.485 266.419 254.411 267.354C254.074 265.187 254.258 259.127 254.609 257.01L254.936 256.814Z"/><path fill="#03955D" d="M204.157 292.598C205.622 292.258 211.36 292.11 212.185 293.58C211.676 295.923 208.476 301.94 207.01 303.793C201.164 311.178 197.826 313.015 189.063 314.485C185.939 314.576 182.814 314.566 179.691 314.452C181.745 306.989 185.388 300.477 191.826 295.896C195.67 293.161 199.666 293.133 204.157 292.598Z"/><path fill="#03955D" d="M182.212 228.124C195.394 229.568 200.736 237.286 201.016 250.012C194.525 249.484 190.506 248.896 185.841 243.642C182.523 239.907 181.742 232.936 182.212 228.124Z"/><path fill="#0286A7" d="M321.351 140.353C324.749 140.248 328.091 140.578 331.485 140.307C331.53 142.873 331.807 150.027 331.289 152.054C330.683 152.658 331.055 152.465 330.062 152.497C326.757 152.599 322.463 152.721 319.216 152.536C319.143 149.685 318.939 143.442 319.359 140.799C319.994 140.304 320.386 140.444 321.351 140.353Z"/><path fill="#FED556" d="M285.042 58.24C292.757 58.5833 282.842 71.7801 280.354 73.6515C275.077 73.006 278.068 68.2794 279.596 65.3302C280.864 62.881 282.703 59.7689 285.042 58.24Z"/><path fill="#FED556" d="M211.174 55.9822C212.915 55.9618 214.022 56.8687 214.895 58.5708C216.589 61.8775 219.637 66.2281 219.64 69.9609C219.641 70.8481 218.047 71.6404 217.426 71.9882C217.35 72.0375 216.871 72.1458 216.764 72.1732C214.192 71.2532 209.308 60.5977 209.712 57.5044C209.807 56.7767 210.568 56.3392 211.174 55.9822Z"/><path fill="#0286A7" d="M384.189 255.999C387.01 256.033 389.83 256.102 392.65 256.204C392.756 257.69 393.004 263.323 392.209 264.194C389.026 264.775 382.45 265.704 383.36 260.896C383.655 259.343 383.732 257.493 384.189 255.999Z"/><path fill="#FED556" d="M247.797 49.6781C253.052 49.8221 251.644 58.7781 251.344 62.281C251.255 63.3194 250.414 63.9737 249.593 64.4635C248.889 64.4487 246.942 64.3993 246.698 63.5646C245.61 59.8504 245.846 55.1359 246.238 51.2983C246.33 50.4005 247.148 50.056 247.797 49.6781Z"/><path fill="#0286A7" d="M363.364 179.345C365.445 179.185 368.408 179.256 370.553 179.246C370.568 181.164 370.726 185.734 370.193 187.272C369.121 187.4 368.046 187.496 366.968 187.557C361.646 187.838 363.148 183.278 363.364 179.345Z"/><path fill="#0286A7" d="M386.304 179.251C388.591 179.257 390.879 179.274 393.166 179.304C393.125 181.77 393.045 184.377 393.151 186.83C392.121 187.582 387.849 187.477 386.345 187.494C386.237 184.531 386.187 182.216 386.304 179.251Z"/><path fill="#0286A7" d="M370.463 200.118C372.555 200.174 374.283 200.254 376.378 200.036C376.494 202.057 376.842 205.876 376.24 207.653L369.892 207.779C369.774 205.69 369.584 203.119 369.753 201.026C369.805 200.383 369.981 200.427 370.463 200.118Z"/></svg>